<svg width="233" height="233" viewBox="0 0 233 233" fill="none" xmlns="http://www.w3.org/2000/svg">
<mask id="mask0_1_3" style="mask-type:alpha" maskUnits="userSpaceOnUse" x="0" y="0" width="233" height="233">
<rect width="233" height="233" fill="#D9D9D9"/>
</mask>
<g mask="url(#mask0_1_3)">
<path fill-rule="evenodd" clip-rule="evenodd" d="M107.596 109.032C90.516 133.546 78.5744 160.102 74.6404 170.545C71.7651 183.742 74.218 194.701 79.6503 202.246C85.1031 209.82 93.9509 214.526 105.064 214.526C115.471 214.526 122.394 212.231 126.994 209.595C131.6 206.955 134.212 203.781 135.718 201.523C137.922 198.216 142.095 196.678 145.958 197.867C159.246 201.959 169.474 201.468 177.134 198.714C184.791 195.96 190.409 190.758 194.178 184.483C197.979 178.155 199.836 170.82 199.896 164.164C199.958 157.371 198.164 152.075 195.63 149.18C188.518 141.051 173.735 130.407 159.226 121.073C144.879 111.844 131.632 104.415 128.204 102.701C125.176 101.187 122.07 100.396 118.955 100.935C115.965 101.453 112.042 103.357 107.596 109.032ZM116.946 89.3247C123.405 88.2067 129.136 89.9933 133.473 92.1618C137.409 94.1298 151.042 101.798 165.601 111.164C179.998 120.425 196.145 131.874 204.498 141.42C209.594 147.244 211.756 155.775 211.679 164.271C211.601 172.902 209.225 182.316 204.279 190.55C199.301 198.838 191.66 206.012 181.121 209.802C171.024 213.432 158.754 213.784 144.373 209.687C142.04 212.813 138.423 216.626 132.853 219.818C126.265 223.594 117.278 226.309 105.064 226.309C90.4 226.309 77.8909 219.969 70.0879 209.131C62.3171 198.338 59.6099 183.663 63.2299 167.573L63.3173 167.185L63.4561 166.812C67.5212 155.886 80.0091 127.979 98.0217 102.161L98.1092 102.036L98.203 101.915C104.029 94.425 110.383 90.4606 116.946 89.3247Z" fill="#FF0083"/>
<path d="M147.459 141.618C135.102 141.618 131.101 147.876 129.806 150.12C101.561 140.555 94.5009 169.249 101.915 177.751C109.329 186.252 131.572 199.005 135.103 200.776C138.633 202.547 143.576 203.256 148.519 196.88C156.992 184.694 162.876 171.492 164.759 166.415C167.937 152.245 159.817 141.618 147.459 141.618Z" fill="#FF0083"/>
<ellipse cx="35.343" cy="128.049" rx="33.8765" ry="25.3139" transform="rotate(33.4764 35.343 128.049)" fill="#FF0083"/>
<ellipse cx="67.8884" cy="63.3581" rx="37.8735" ry="30.2077" transform="rotate(53.6336 67.8884 63.3581)" fill="#FF0083"/>
<ellipse cx="141.69" cy="44.4059" rx="37.8735" ry="30.2077" transform="rotate(89.195 141.69 44.4059)" fill="#FF0083"/>
<ellipse cx="201.543" cy="83.9302" rx="33.149" ry="26.4537" transform="rotate(113.755 201.543 83.9302)" fill="#FF0083"/>
</g>
</svg>
